<svg width="17" height="14" viewBox="0 0 17 14" fill="none" xmlns="http://www.w3.org/2000/svg">
<path d="M16.3527 0.474099C15.9762 0.135097 15.487 -0.033434 14.9922 0.00551465C14.4975 0.0444633 14.0376 0.287662 13.7136 0.681764L7.33564 8.44381C7.26527 8.52928 7.17866 8.59845 7.08136 8.64682C6.98407 8.69518 6.87824 8.72176 6.7706 8.7248C6.66297 8.72785 6.55595 8.70732 6.45632 8.66449C6.3567 8.62167 6.26666 8.55752 6.19201 8.47612L3.26696 5.24577C3.10025 5.04891 2.89748 4.88928 2.67073 4.77641C2.44398 4.66357 2.19788 4.59975 1.94712 4.58882C1.69635 4.57783 1.44603 4.62001 1.21115 4.71272C0.976219 4.80543 0.761524 4.94683 0.579819 5.12847C0.398113 5.3101 0.253136 5.52829 0.153552 5.76997C0.0539241 6.01169 0.00171293 6.27192 4.14723e-05 6.53523C-0.00162999 6.79855 0.0472384 7.05952 0.143743 7.30258C0.240248 7.54564 0.382454 7.76586 0.561828 7.95003L5.49704 13.3909C5.67201 13.583 5.88227 13.736 6.11508 13.8407C6.3479 13.9454 6.59849 13.9995 6.8518 14H6.89579C7.15662 13.9929 7.41319 13.9284 7.64882 13.8108C7.88446 13.6932 8.09396 13.5249 8.26375 13.317L16.5463 3.24296C16.8699 2.84854 17.0313 2.33561 16.995 1.81658C16.9587 1.29751 16.7278 0.814761 16.3527 0.474099Z" fill="#97FE01"/>
</svg>
