<svg width="60" height="60" viewBox="0 0 60 60" fill="none" xmlns="http://www.w3.org/2000/svg">
<circle cx="30" cy="30" r="30" fill="#181818"/>
<path d="M35.1794 38C33.9978 38 33.0263 37.6074 32.2648 36.8223C31.5295 36.0372 31.1619 34.8866 31.1619 33.3706C31.1619 31.4484 31.7396 29.4179 32.895 27.2792C34.0503 25.1404 35.4551 23.3807 37.1094 22L38.4486 23.2589C38.0022 23.7733 37.5952 24.423 37.2276 25.2081C36.86 25.9932 36.5449 26.8325 36.2823 27.7259C36.046 28.6193 35.9015 29.5262 35.849 30.4467C36.7943 30.6091 37.5558 31.0423 38.1335 31.7462C38.7112 32.423 39 33.2352 39 34.1827C39 35.2927 38.6455 36.2132 37.9365 36.9442C37.2276 37.6481 36.3085 38 35.1794 38ZM25.0175 38C23.8096 38 22.8381 37.6074 22.1028 36.8223C21.3676 36.0372 21 34.8866 21 33.3706C21 31.4484 21.5646 29.4179 22.6937 27.2792C23.849 25.1404 25.267 23.3807 26.9475 22L28.2867 23.2589C27.8665 23.7733 27.4595 24.423 27.0656 25.2081C26.698 25.9932 26.3829 26.8325 26.1204 27.7259C25.884 28.6193 25.7396 29.5262 25.6871 30.4467C26.6324 30.6091 27.3939 31.0423 27.9716 31.7462C28.5492 32.423 28.8381 33.2352 28.8381 34.1827C28.8381 35.2927 28.4836 36.2132 27.7746 36.9442C27.0919 37.6481 26.1729 38 25.0175 38Z" fill="#6E95F8"/>
</svg>
