<svg width="60" height="60" viewBox="0 0 60 60" fill="none" xmlns="http://www.w3.org/2000/svg">
<circle cx="30" cy="30" r="30" fill="#181818"/>
<path d="M44 32.6625C44 33.295 43.4717 33.8125 42.8261 33.8125H37.3087C36.8098 33.8125 36.3696 33.5538 36.1935 33.065L35.313 30.65L32.437 40.1662C32.2902 40.655 31.8207 41 31.3217 41H31.2924C30.7641 40.9712 30.2946 40.6262 30.1772 40.1087L26.3913 24.0375L24.1022 32.9787C23.9848 33.4962 23.5152 33.8125 22.9576 33.8125H18.1739C17.5283 33.8125 17 33.295 17 32.6625C17 32.03 17.5283 31.5125 18.1739 31.5125H22.0478L25.3054 18.8337C25.4228 18.3162 25.9217 18 26.45 18C26.9783 18 27.4478 18.3738 27.5946 18.8913L31.4685 35.3363L34.1098 26.5963C34.2565 26.1075 34.6967 25.7625 35.1957 25.7625C35.6946 25.7337 36.1641 26.05 36.3402 26.51L38.1304 31.5125H42.8261C43.4717 31.5125 44 32.03 44 32.6625Z" fill="#FA4343"/>
</svg>
