<svg width="60" height="60" viewBox="0 0 60 60" fill="none" xmlns="http://www.w3.org/2000/svg">
<circle cx="30" cy="30" r="30" fill="#181818"/>
<path d="M30 18C27.6266 18 25.3066 18.7038 23.3332 20.0224C21.3598 21.3409 19.8217 23.2151 18.9135 25.4078C18.0052 27.6005 17.7676 30.0133 18.2306 32.3411C18.6936 34.6689 19.8365 36.807 21.5147 38.4853C23.193 40.1635 25.3311 41.3064 27.6589 41.7694C29.9867 42.2324 32.3995 41.9948 34.5922 41.0865C36.7849 40.1783 38.6591 38.6402 39.9776 36.6668C41.2962 34.6934 42 32.3734 42 30C42 26.8174 40.7357 23.7652 38.4853 21.5147C36.2348 19.2643 33.1826 18 30 18V18ZM30 40.0012C28.0219 40.0012 26.0883 39.4147 24.4436 38.3157C22.7989 37.2168 21.517 35.6548 20.7601 33.8273C20.0031 31.9998 19.805 29.9889 20.1909 28.0489C20.5768 26.1088 21.5294 24.3267 22.9281 22.928C24.3268 21.5293 26.1088 20.5768 28.0489 20.1909C29.9889 19.805 31.9998 20.0031 33.8273 20.76C35.6548 21.517 37.2168 22.7989 38.3157 24.4436C39.4147 26.0883 40.0012 28.0219 40.0012 30C39.9963 32.651 38.941 35.1919 37.0665 37.0665C35.192 38.941 32.651 39.9963 30 40.0012Z" fill="#65BA57"/>
<path d="M35.5441 33.2016L32.1361 30.6384L31.2817 30V22.9584C31.2817 22.6185 31.1467 22.2925 30.9063 22.0521C30.666 21.8118 30.34 21.6768 30.0001 21.6768C29.6602 21.6768 29.3342 21.8118 29.0939 22.0521C28.8535 22.2925 28.7185 22.6185 28.7185 22.9584V30.6384C28.7195 30.7387 28.7324 30.8386 28.7569 30.936C28.7799 31.0299 28.8154 31.1203 28.8625 31.2048C28.8955 31.2889 28.9426 31.3668 29.0017 31.4352C29.0017 31.4352 29.0017 31.4736 29.0401 31.4832C29.0933 31.5452 29.1528 31.6015 29.2177 31.6512L29.2705 31.6896L31.2673 33.1872L34.3393 35.4912C34.5598 35.6592 34.8301 35.7488 35.1073 35.7456C35.3755 35.7446 35.6366 35.6595 35.8538 35.5023C36.0711 35.345 36.2336 35.1237 36.3184 34.8692C36.4032 34.6148 36.406 34.3402 36.3265 34.0841C36.2471 33.828 36.0892 33.6033 35.8753 33.4416L35.5441 33.2016Z" fill="#65BA57"/>
</svg>
