<svg width="60" height="60" viewBox="0 0 60 60" fill="none" xmlns="http://www.w3.org/2000/svg">
<circle cx="30" cy="30" r="30" fill="#2C2C2C"/>
<path d="M30 18C23.95 18 19 22.8358 19 28.7463V31.4328C19 33.9403 21.0167 35.9104 23.5833 35.9104C24.1333 35.9104 24.5 35.5522 24.5 35.0149V27.8507C24.5 27.3134 24.1333 26.9552 23.5833 26.9552C22.575 26.9552 21.6583 27.3134 20.925 27.8507C21.3833 23.3731 25.325 19.791 30 19.791C34.675 19.791 38.6167 23.2836 39.075 27.8507C38.3417 27.3134 37.425 26.9552 36.4167 26.9552C35.8667 26.9552 35.5 27.3134 35.5 27.8507V35.0149C35.5 35.5522 35.8667 35.9104 36.4167 35.9104C36.9667 35.9104 37.6083 35.8209 38.0667 35.5522C37.0583 37.3433 35.5 38.7761 33.575 39.5821C33.3917 38.5075 32.475 37.6119 31.2833 37.6119C30.0917 37.6119 29.0833 38.597 29.0833 39.7612C29.0833 40.3881 29.3583 41.0149 29.9083 41.4627C30.3667 41.8209 30.825 42 31.375 42C31.4667 42 31.65 42 31.7417 42C36.9667 41.2836 41 36.7164 41 31.4328V28.7463C41 22.8358 36.05 18 30 18Z" fill="#43F7F7"/>
</svg>
