<svg width="60" height="60" viewBox="0 0 60 60" fill="none" xmlns="http://www.w3.org/2000/svg">
<circle cx="30" cy="30" r="30" fill="#181818"/>
<path d="M30 44.9999C29.5048 45.0004 29.0179 44.8756 28.5859 44.6375L28.1526 44.3945C24.7715 42.5216 21.9571 39.7982 19.9974 36.503C18.0378 33.2079 17.0033 29.4596 17 25.6417V25.4356C17.001 24.9319 17.1376 24.4374 17.3959 24.0025C17.6541 23.5676 18.0249 23.2078 18.4704 22.9597L28.5816 17.3626C29.014 17.1248 29.5011 17 29.9964 17C30.4917 17 30.9788 17.1248 31.4112 17.3626L41.5223 22.9583C41.9692 23.2058 42.3415 23.5655 42.601 24.0007C42.8606 24.4359 42.9983 24.931 43 25.4356V25.6417C42.9987 29.4606 41.9656 33.2104 40.0067 36.5072C38.0477 39.8039 35.2332 42.5288 31.8518 44.403L31.4184 44.6446C30.9845 44.881 30.496 45.0033 30 44.9999ZM30 19.8428L19.8889 25.4356V25.6417C19.8917 28.9557 20.7892 32.2097 22.4897 35.0704C24.1901 37.931 26.6324 40.2958 29.5667 41.9228L30 42.1644L30.4333 41.9228C33.3676 40.2958 35.8098 37.931 37.5104 35.0704C39.2108 32.2097 40.1084 28.9557 40.1111 25.6417V25.4356L30 19.8428Z" fill="#F2FC82"/>
</svg>
