<svg width="60" height="60" viewBox="0 0 60 60" fill="none" xmlns="http://www.w3.org/2000/svg">
<circle cx="30" cy="30" r="30" fill="#181818"/>
<path d="M37.0645 34.9355C35.9129 33.9484 35.5016 32.3032 36.1597 30.7404C37.229 27.9436 36.3242 25.2292 33.1162 22.0212C31.3065 20.2115 28.8388 19.3067 26.3711 19.3889C23.8211 19.4712 21.518 20.5405 19.7906 22.5147C16.5825 26.2162 16.9938 31.892 20.6954 35.429C23.7389 38.2257 26.3711 39.0483 29.0033 37.979C30.4839 37.4032 32.1291 37.7322 33.1162 38.8838L35.6661 41.7628C35.9129 42.0918 36.4064 42.2563 36.8177 42.3386C36.8177 42.3386 36.8177 42.3386 36.9 42.3386C37.3113 42.3386 37.7225 42.1741 38.0516 41.845L40.108 39.7886C40.437 39.4596 40.6015 39.0483 40.6015 38.637C40.6015 38.2257 40.3548 37.8145 40.0257 37.4854L37.0645 34.9355ZM21.0244 23.584C22.4228 22.0212 24.3147 21.1163 26.3711 21.0341C28.4275 20.9518 30.4017 21.7744 31.8823 23.255C32.9516 24.3243 33.692 25.3114 34.1855 26.2162L24.3147 36.0048C23.5744 35.5935 22.7518 35.0177 21.847 34.1129C18.7212 31.2339 18.3922 26.6275 21.0244 23.584Z" fill="#92D67A"/>
<path d="M38.7095 17.6616C36.8998 17.6616 35.4192 19.1422 35.4192 20.9519C35.4192 22.7615 36.8998 24.2422 38.7095 24.2422C40.5191 24.2422 41.9997 22.7615 41.9997 20.9519C41.9997 19.1422 40.5191 17.6616 38.7095 17.6616Z" fill="#92D67A"/>
</svg>
