<svg width="60" height="60" viewBox="0 0 60 60" fill="none" xmlns="http://www.w3.org/2000/svg">
<circle cx="30" cy="30" r="30" fill="#2C2C2C"/>
<path d="M34.6888 28.6955C36.9247 28.6955 38.7373 26.883 38.7373 24.6471C38.7373 22.4112 36.9247 20.5986 34.6888 20.5986C32.4529 20.5986 30.6404 22.4112 30.6404 24.6471C30.6404 26.883 32.4529 28.6955 34.6888 28.6955Z" fill="#4FD38C"/>
<path d="M43.1453 30.045C42.9654 29.7751 42.6955 29.5952 42.3356 29.5952C40.3564 29.5952 38.4671 30.4949 37.2976 32.1142L36.4879 33.1938C35.4983 34.3634 33.9689 34.9931 32.4394 34.9931H29.7405C29.2007 34.9931 28.8408 34.6333 28.8408 34.0935C28.8408 33.5537 29.2007 33.1938 29.7405 33.1938H31.4498C32.8893 33.1938 34.2388 32.0243 34.2388 30.5848V30.4949C34.2388 30.045 33.7889 29.5952 33.3391 29.5952H27.8512C24.6125 29.5952 22.0035 31.0347 20.564 33.3738L18.1349 37.1523C17.955 37.4222 17.955 37.7821 18.1349 38.052L20.8339 42.5502C20.9239 42.7302 21.1938 42.9101 21.3737 43.0001C21.4637 43.0001 21.4637 43.0001 21.5536 43.0001C21.7336 43.0001 21.9135 42.9101 22.0934 42.8201C25.5121 40.571 29.4706 39.4014 33.519 39.4014C36.4879 39.4014 39.1869 37.7821 40.6263 35.1731L43.0554 30.8547C43.2353 30.6748 43.2353 30.3149 43.1453 30.045Z" fill="#4FD38C"/>
<path d="M28.8408 24.6471C28.8408 22.3979 30.1903 20.4187 32.0796 19.4291C31.4498 17.9896 30.0103 17 28.391 17C26.1418 17 24.3425 18.7993 24.3425 21.0484C24.3425 23.2976 26.1418 25.0969 28.391 25.0969C28.5709 25.0969 28.6609 25.0969 28.8408 25.0069C28.8408 24.917 28.8408 24.827 28.8408 24.6471Z" fill="#4FD38C"/>
</svg>
