<svg width="60" height="60" viewBox="0 0 60 60" fill="none" xmlns="http://www.w3.org/2000/svg">
<circle cx="30" cy="30" r="30" fill="#2C2C2C"/>
<path d="M41.4043 28.4042L39.1585 26.1584V22.9704C39.1585 22.3893 38.9277 21.832 38.5168 21.4211C38.1059 21.0102 37.5486 20.7794 36.9675 20.7794H33.7904L31.5446 18.5883C31.1341 18.1802 30.5788 17.9512 29.9999 17.9512C29.4211 17.9512 28.8658 18.1802 28.4553 18.5883L26.2094 20.7903H23.0215C22.4404 20.7903 21.8831 21.0211 21.4722 21.432C21.0613 21.8429 20.8304 22.4002 20.8304 22.9813V26.1584L18.6394 28.4042C18.4277 28.6031 18.2577 28.842 18.1392 29.1072C18.0207 29.3724 17.9561 29.6585 17.9492 29.9489C17.9488 30.5275 18.1772 31.0827 18.5846 31.4935L20.8414 33.7394V36.9273C20.8414 37.5084 21.0722 38.0657 21.4831 38.4766C21.894 38.8875 22.4513 39.1184 23.0324 39.1184H26.2094L28.4553 41.3642C28.8661 41.7716 29.4214 42 29.9999 41.9996C30.5785 42 31.1338 41.7716 31.5446 41.3642L33.7904 39.1074H36.9784C37.5595 39.1074 38.1168 38.8766 38.5277 38.4657C38.9386 38.0548 39.1695 37.4975 39.1695 36.9164V33.7394L41.4153 31.4935C41.8234 31.083 42.0524 30.5277 42.0524 29.9489C42.0524 29.37 41.8234 28.8147 41.4153 28.4042H41.4043ZM36.9675 32.841V36.9164H32.8921L29.9999 39.8085L27.1078 36.9164H23.0324V32.841L20.1403 29.9489L23.0324 27.0567V22.9813H27.1078L29.9999 20.0892L32.8921 22.9813H36.9675V27.0567L39.8596 29.9489L36.9675 32.841Z" fill="#6B7AFE"/>
<path d="M28.9045 30.7486L26.3957 28.2399L24.8401 29.7846L28.9045 33.8489L35.1599 27.5935L33.6043 26.0488L28.9045 30.7486Z" fill="#6B7AFE"/>
</svg>
