<svg width="60" height="60" viewBox="0 0 60 60" fill="none" xmlns="http://www.w3.org/2000/svg">
<circle cx="30" cy="30" r="30" fill="#181818"/>
<path d="M35.0866 41.8813C34.8274 41.8813 34.576 41.792 34.3749 41.6284C34.1738 41.4649 34.0352 41.237 33.9823 40.9832C33.9295 40.7294 33.9657 40.4651 34.085 40.2349C34.2042 40.0047 34.399 39.8226 34.6367 39.7192C36.4515 38.9308 37.9964 37.6292 39.0814 35.9746C40.1664 34.3199 40.7443 32.3843 40.744 30.4056C40.744 24.8091 36.1907 20.256 30.5944 20.256C24.998 20.256 20.4447 24.8091 20.4447 30.4056C20.4442 31.2618 20.5515 32.1146 20.7641 32.9439C20.8019 33.0876 20.8109 33.2373 20.7906 33.3845C20.7703 33.5317 20.7211 33.6734 20.6459 33.8015C20.5706 33.9296 20.4708 34.0415 20.3521 34.131C20.2335 34.2204 20.0983 34.2855 19.9545 34.3225C19.8106 34.3595 19.6608 34.3677 19.5137 34.3466C19.3667 34.3255 19.2252 34.2756 19.0975 34.1997C18.9698 34.1238 18.8584 34.0234 18.7696 33.9043C18.6808 33.7852 18.6164 33.6496 18.5802 33.5056C18.3202 32.4928 18.1888 31.4513 18.1892 30.4056C18.1892 23.5652 23.7539 18.0005 30.5944 18.0005C37.4348 18.0005 42.9995 23.5652 42.9995 30.4056C43 32.8238 42.2938 35.1894 40.9677 37.2116C39.6415 39.2337 37.7534 40.8242 35.5353 41.7874C35.3938 41.8494 35.2411 41.8814 35.0866 41.8813Z" fill="#9086FC"/>
<path d="M35.6693 31.5336H30.5945C30.2954 31.5336 30.0086 31.4148 29.7971 31.2033C29.5856 30.9918 29.4668 30.705 29.4668 30.4059V23.6394C29.4668 23.3403 29.5856 23.0535 29.7971 22.842C30.0086 22.6306 30.2954 22.5117 30.5945 22.5117C30.8936 22.5117 31.1804 22.6306 31.392 22.842C31.6034 23.0535 31.7222 23.3403 31.7222 23.6394V29.2782H35.6693C35.8174 29.2782 35.9641 29.3073 36.1009 29.364C36.2377 29.4207 36.3621 29.5037 36.4668 29.6084C36.5715 29.7132 36.6546 29.8375 36.7112 29.9743C36.7679 30.1111 36.7971 30.2578 36.7971 30.4059C36.7971 30.5539 36.7679 30.7006 36.7112 30.8375C36.6546 30.9743 36.5715 31.0986 36.4668 31.2033C36.3621 31.308 36.2377 31.3911 36.1009 31.4478C35.9641 31.5044 35.8174 31.5336 35.6693 31.5336Z" fill="#9086FC"/>
<path d="M30.4288 42.4127H25.354C25.1405 42.4127 24.9314 42.3521 24.7509 42.238C24.5705 42.1239 24.4262 41.9608 24.3347 41.7679C24.2433 41.575 24.2085 41.3601 24.2345 41.1481C24.2604 40.9362 24.346 40.736 24.4812 40.5708L28.0489 36.2101H25.354C25.2052 36.2111 25.0578 36.1827 24.92 36.1265C24.7823 36.0703 24.6571 35.9873 24.5515 35.8825C24.446 35.7777 24.3622 35.653 24.3051 35.5157C24.248 35.3784 24.2185 35.2311 24.2185 35.0824C24.2185 34.9336 24.248 34.7863 24.3051 34.649C24.3622 34.5117 24.446 34.387 24.5515 34.2822C24.6571 34.1774 24.7823 34.0944 24.92 34.0382C25.0578 33.982 25.2052 33.9536 25.354 33.9546H30.4288C30.6423 33.9546 30.8515 34.0151 31.0319 34.1293C31.2123 34.2435 31.3566 34.4065 31.4481 34.5994C31.5395 34.7924 31.5743 35.0073 31.5483 35.2192C31.5224 35.4311 31.4368 35.6314 31.3016 35.7966L27.7339 40.1572H30.4288C30.7279 40.1572 31.0148 40.2761 31.2263 40.4875C31.4377 40.699 31.5566 40.9858 31.5566 41.2849C31.5566 41.584 31.4377 41.8709 31.2263 42.0824C31.0148 42.2938 30.7279 42.4127 30.4288 42.4127Z" fill="#9086FC"/>
<path d="M21.0751 45.0003H17.128C16.9113 45.0004 16.6993 44.938 16.5171 44.8206C16.335 44.7033 16.1905 44.5359 16.101 44.3386C16.0115 44.1413 15.9807 43.9224 16.0123 43.708C16.044 43.4937 16.1367 43.293 16.2795 43.13L18.59 40.4893H17.128C16.8289 40.4893 16.5421 40.3705 16.3306 40.159C16.1191 39.9475 16.0003 39.6607 16.0003 39.3616C16.0003 39.0625 16.1191 38.7757 16.3306 38.5642C16.5421 38.3527 16.8289 38.2339 17.128 38.2339H21.0751C21.2918 38.2338 21.5038 38.2963 21.686 38.4136C21.8681 38.5309 22.0125 38.6983 22.102 38.8956C22.1916 39.0929 22.2224 39.3118 22.1907 39.5261C22.1591 39.7405 22.0664 39.9411 21.9236 40.1042L19.6131 42.7448H21.0751C21.2238 42.7438 21.3713 42.7722 21.509 42.8285C21.6467 42.8847 21.772 42.9676 21.8775 43.0724C21.983 43.1772 22.0668 43.3019 22.124 43.4392C22.1811 43.5765 22.2106 43.7238 22.2106 43.8726C22.2106 44.0213 22.1811 44.1686 22.124 44.3059C22.0668 44.4433 21.983 44.568 21.8775 44.6727C21.772 44.7776 21.6467 44.8605 21.509 44.9167C21.3713 44.9729 21.2238 45.0013 21.0751 45.0003Z" fill="#9086FC"/>
</svg>
