<svg width="60" height="60" viewBox="0 0 60 60" fill="none" xmlns="http://www.w3.org/2000/svg">
<circle cx="30" cy="30" r="30" fill="#2C2C2C"/>
<path fill-rule="evenodd" clip-rule="evenodd" d="M17 23.3333C17 21.4924 18.4551 20 20.25 20H30C31.795 20 33.25 21.4924 33.25 23.3333H36.5419C37.5293 23.3333 38.463 23.7936 39.0798 24.5843L42.2878 28.6972C42.7489 29.2882 43 30.0226 43 30.7796V34.4444C43 36.2854 41.545 37.7778 39.75 37.7778H39.5651C39.119 39.0724 37.9151 40 36.5 40C35.085 40 33.881 39.0724 33.4349 37.7778H26.5651C26.1189 39.0724 24.9151 40 23.5 40C22.0849 40 20.8811 39.0724 20.4349 37.7778H20.25C18.4551 37.7778 17 36.2854 17 34.4444V23.3333ZM20.4349 35.5556C20.8811 34.2609 22.0849 33.3333 23.5 33.3333C24.9151 33.3333 26.1189 34.2609 26.5651 35.5556H31.0833V23.3333C31.0833 22.7197 30.5983 22.2222 30 22.2222H20.25C19.6517 22.2222 19.1667 22.7197 19.1667 23.3333V34.4444C19.1667 35.0581 19.6517 35.5556 20.25 35.5556H20.4349ZM33.25 35.5556V25.5556H36.5419C36.871 25.5556 37.1823 25.709 37.3879 25.9726L40.596 30.0854C40.7496 30.2824 40.8333 30.5272 40.8333 30.7796V34.4444C40.8333 35.0581 40.3483 35.5556 39.75 35.5556H39.5651C39.119 34.2609 37.9151 33.3333 36.5 33.3333C35.085 33.3333 33.881 34.2609 33.4349 35.5556H33.25ZM23.5 35.5556C22.9017 35.5556 22.4167 36.053 22.4167 36.6667C22.4167 37.2803 22.9017 37.7778 23.5 37.7778C24.0983 37.7778 24.5833 37.2803 24.5833 36.6667C24.5833 36.053 24.0983 35.5556 23.5 35.5556ZM36.5 35.5556C35.9017 35.5556 35.4167 36.053 35.4167 36.6667C35.4167 37.2803 35.9017 37.7778 36.5 37.7778C37.0983 37.7778 37.5833 37.2803 37.5833 36.6667C37.5833 36.053 37.0983 35.5556 36.5 35.5556Z" fill="#619AD8"/>
</svg>
