<svg width="60" height="60" viewBox="0 0 60 60" fill="none" xmlns="http://www.w3.org/2000/svg">
<circle cx="30" cy="30" r="30" fill="#2C2C2C"/>
<path d="M37.5923 34.3195L31.6361 36.7995L32.6323 39.2219L38.5885 36.7681C38.7493 36.7027 38.8956 36.6062 39.0191 36.4843C39.1426 36.3623 39.2409 36.2172 39.3083 36.0573C39.3757 35.8973 39.411 35.7257 39.4121 35.5521C39.4132 35.3786 39.3801 35.2065 39.3147 35.0457C39.2493 34.8849 39.1528 34.7386 39.0309 34.6151C38.9089 34.4916 38.7638 34.3933 38.6039 34.3259C38.4439 34.2585 38.2723 34.2232 38.0987 34.2221C37.9251 34.221 37.7531 34.2541 37.5923 34.3195ZM21.9047 17.8402C21.8827 17.7875 21.8564 17.7366 21.8261 17.6882L21.7841 17.6043C21.7486 17.5548 21.7101 17.5075 21.6688 17.4627L21.6216 17.4051C21.44 17.2217 21.2083 17.096 20.9555 17.0437C20.7027 16.9915 20.4401 17.015 20.2007 17.1114L16.7979 18.4851C16.4823 18.6193 16.2319 18.8718 16.1003 19.1885C15.9687 19.5052 15.9665 19.8608 16.0941 20.1791C16.2217 20.4974 16.469 20.7531 16.7828 20.8912C17.0967 21.0293 17.4522 21.0389 17.7731 20.918L19.97 20.0319L25.4124 33.339C25.5556 33.645 25.8111 33.8842 26.1258 34.0071C26.4405 34.1299 26.7904 34.127 27.103 33.999C27.4157 33.871 27.6671 33.6276 27.8053 33.3193C27.9434 33.011 27.9578 32.6614 27.8452 32.3428L21.9047 17.8402ZM41.8497 28.6779L39.1443 22.0924C38.9449 21.6184 38.5665 21.2423 38.0912 21.0459C37.616 20.8495 37.0824 20.8488 36.6066 21.0438L28.5583 24.3575C28.3227 24.4551 28.1086 24.5982 27.9284 24.7786C27.7481 24.959 27.6052 25.1732 27.5078 25.4089C27.4104 25.6446 27.3604 25.8972 27.3608 26.1522C27.3611 26.4073 27.4117 26.6597 27.5097 26.8952L30.2152 33.4806C30.4134 33.9555 30.7918 34.3326 31.2674 34.5291C31.743 34.7257 32.2772 34.7257 32.7528 34.5292L40.7959 31.226C41.0328 31.1284 41.2481 30.985 41.4294 30.8039C41.6107 30.6228 41.7544 30.4077 41.8523 30.171C41.9503 29.9342 42.0004 29.6804 42 29.4242C41.9996 29.1679 41.9485 28.9143 41.8497 28.6779ZM38.7563 29.2022L32.7843 31.6665C32.7307 31.6895 32.673 31.7014 32.6147 31.7017C32.5564 31.702 32.4987 31.6905 32.4449 31.668C32.3911 31.6455 32.3423 31.6124 32.3016 31.5707C32.2608 31.529 32.2288 31.4796 32.2076 31.4253L30.3515 26.9109C30.308 26.8024 30.3089 26.6811 30.354 26.5732C30.3991 26.4653 30.4848 26.3794 30.5927 26.3342L36.5646 23.8804C36.6183 23.8581 36.6759 23.8467 36.734 23.8468C36.7921 23.8469 36.8496 23.8585 36.9032 23.8809C36.9568 23.9033 37.0055 23.9361 37.0463 23.9774C37.0872 24.0187 37.1195 24.0677 37.1414 24.1216L38.9975 28.6359C39.0426 28.7451 39.0425 28.8677 38.9973 28.9768C38.9521 29.086 38.8654 29.1727 38.7563 29.2179V29.2022Z" fill="#C3F080"/>
<path d="M29.0825 37.9897C29.3418 37.9897 29.5952 38.0666 29.8108 38.2107C30.0263 38.3547 30.1943 38.5594 30.2935 38.7989C30.3927 39.0384 30.4187 39.302 30.3681 39.5563C30.3176 39.8105 30.1927 40.0441 30.0094 40.2274C29.8261 40.4107 29.5925 40.5356 29.3382 40.5861C29.084 40.6367 28.8204 40.6108 28.5809 40.5116C28.3414 40.4123 28.1367 40.2443 27.9926 40.0288C27.8486 39.8132 27.7717 39.5598 27.7717 39.3005C27.7717 38.9529 27.9098 38.6195 28.1557 38.3737C28.4015 38.1278 28.7349 37.9897 29.0825 37.9897ZM29.0825 35.3682C28.3048 35.3682 27.5445 35.5988 26.8978 36.0309C26.2511 36.463 25.7471 37.0771 25.4495 37.7957C25.1519 38.5142 25.074 39.3049 25.2257 40.0677C25.3774 40.8305 25.752 41.5312 26.3019 42.0812C26.8519 42.6311 27.5525 43.0056 28.3154 43.1574C29.0782 43.3091 29.8688 43.2312 30.5874 42.9336C31.3059 42.6359 31.9201 42.1319 32.3522 41.4853C32.7843 40.8386 33.0149 40.0783 33.0149 39.3005C33.0149 38.2576 32.6006 37.2574 31.8631 36.5199C31.1257 35.7825 30.1255 35.3682 29.0825 35.3682Z" fill="#C3F080"/>
</svg>
