<svg width="60" height="60" viewBox="0 0 60 60" fill="none" xmlns="http://www.w3.org/2000/svg">
<circle cx="30" cy="30" r="30" fill="#181818"/>
<path d="M43 38.0239H41V35.0239C41 34.4935 40.7893 33.9848 40.4142 33.6097C40.0391 33.2346 39.5304 33.0239 39 33.0239H37C36.4696 33.0239 35.9609 33.2346 35.5858 33.6097C35.2107 33.9848 35 34.4935 35 35.0239V38.0239H33V33.0239C33 32.4935 32.7893 31.9848 32.4142 31.6097C32.0391 31.2346 31.5304 31.0239 31 31.0239H29C28.4696 31.0239 27.9609 31.2346 27.5858 31.6097C27.2107 31.9848 27 32.4935 27 33.0239V38.0239H25V21.0239C25 20.4935 24.7893 19.9848 24.4142 19.6097C24.0391 19.2346 23.5304 19.0239 23 19.0239H21C20.4696 19.0239 19.9609 19.2346 19.5858 19.6097C19.2107 19.9848 19 20.4935 19 21.0239V38.0239H17C16.7348 38.0239 16.4804 38.1293 16.2929 38.3168C16.1054 38.5044 16 38.7587 16 39.0239C16 39.2891 16.1054 39.5435 16.2929 39.731C16.4804 39.9186 16.7348 40.0239 17 40.0239H43C43.2652 40.0239 43.5196 39.9186 43.7071 39.731C43.8946 39.5435 44 39.2891 44 39.0239C44 38.7587 43.8946 38.5044 43.7071 38.3168C43.5196 38.1293 43.2652 38.0239 43 38.0239Z" fill="#E9AC51"/>
<path d="M43.707 31.3169L39.887 27.4969C40.7609 26.2684 41.1414 24.7564 40.9529 23.2606C40.7645 21.7648 40.0209 20.3944 38.8696 19.421C37.7183 18.4476 36.2433 17.9423 34.737 18.0052C33.2307 18.0682 31.803 18.6948 30.737 19.7609C29.6709 20.8269 29.0443 22.2546 28.9813 23.7609C28.9184 25.2673 29.4237 26.7423 30.397 27.8936C31.3704 29.0449 32.7408 29.7884 34.2367 29.9769C35.7325 30.1653 37.2445 29.7848 38.473 28.9109L42.293 32.7309C42.4816 32.9131 42.7342 33.0139 42.9964 33.0116C43.2586 33.0093 43.5094 32.9042 43.6948 32.7187C43.8802 32.5333 43.9854 32.2825 43.9877 32.0203C43.99 31.7581 43.8892 31.5055 43.707 31.3169ZM35 28.0239C34.2089 28.0239 33.4355 27.7893 32.7777 27.3498C32.1199 26.9103 31.6072 26.2856 31.3045 25.5547C31.0017 24.8238 30.9225 24.0195 31.0769 23.2436C31.2312 22.4676 31.6122 21.7549 32.1716 21.1955C32.731 20.6361 33.4437 20.2551 34.2196 20.1008C34.9956 19.9464 35.7998 20.0257 36.5307 20.3284C37.2616 20.6312 37.8864 21.1439 38.3259 21.8016C38.7654 22.4594 39 23.2328 39 24.0239C39 25.0848 38.5786 26.1022 37.8284 26.8524C37.0783 27.6025 36.0609 28.0239 35 28.0239Z" fill="#E9AC51"/>
</svg>
