<svg width="60" height="60" viewBox="0 0 60 60" fill="none" xmlns="http://www.w3.org/2000/svg">
<circle cx="30" cy="30" r="30" fill="#181818"/>
<path d="M41.1666 41.1998H33.6066C32.4866 41.1998 31.4599 40.7332 30.6199 39.9865L18.7666 28.1332L25.2999 20.6665C25.2999 24.3065 29.1266 28.1332 32.7666 28.1332H33.6999C33.6066 32.3332 35.1933 35.4132 39.2999 36.7198C39.5799 36.8132 39.7666 36.9065 40.0466 36.9065C41.1666 37.1865 41.9133 38.3998 41.6333 39.5198L41.1666 41.1998Z" stroke="#65BCBC" stroke-width="2" stroke-miterlimit="10" stroke-linecap="round" stroke-linejoin="round"/>
<path d="M16.8999 30L29.6866 42.7867C30.4332 43.5333 31.5532 44 32.6732 44H41.1666" stroke="#65BCBC" stroke-width="2" stroke-miterlimit="10" stroke-linecap="round" stroke-linejoin="round"/>
<path d="M25.7665 30.9333C26.5397 30.9333 27.1665 30.3065 27.1665 29.5333C27.1665 28.7601 26.5397 28.1333 25.7665 28.1333C24.9933 28.1333 24.3665 28.7601 24.3665 29.5333C24.3665 30.3065 24.9933 30.9333 25.7665 30.9333Z" stroke="#65BCBC" stroke-width="2" stroke-miterlimit="10" stroke-linecap="round" stroke-linejoin="round"/>
<path d="M29.9666 32.7998H34.1666" stroke="#65BCBC" stroke-width="2" stroke-miterlimit="10" stroke-linecap="round" stroke-linejoin="round"/>
<path d="M31.8333 35.6001H36.9666" stroke="#65BCBC" stroke-width="2" stroke-miterlimit="10" stroke-linecap="round" stroke-linejoin="round"/>
<path d="M42.1 16L35.2867 22.8133C33.7 24.4 33.14 26.64 33.7 28.7867" stroke="#65BCBC" stroke-width="2" stroke-miterlimit="10" stroke-linecap="round" stroke-linejoin="round"/>
<path d="M25.2998 21.6C27.0731 21.04 28.6598 19.7333 29.5931 18.1467L30.8998 16" stroke="#65BCBC" stroke-width="2" stroke-miterlimit="10" stroke-linecap="round" stroke-linejoin="round"/>
</svg>
