<svg width="60" height="60" viewBox="0 0 60 60" fill="none" xmlns="http://www.w3.org/2000/svg">
<circle cx="30" cy="29.9932" r="30" fill="#2C2C2C"/>
<path d="M40.9974 22.3138C40.9964 22.2978 40.9948 22.2822 40.9926 22.2665C40.99 22.2512 40.9871 22.2361 40.9832 22.2214C40.9793 22.2067 40.9748 22.192 40.9693 22.1779C40.9638 22.1635 40.958 22.1494 40.9509 22.1356C40.9441 22.1221 40.937 22.1093 40.9289 22.0968C40.9208 22.0836 40.9121 22.0711 40.9028 22.0589C40.8934 22.047 40.8837 22.0354 40.8734 22.0245C40.863 22.0135 40.8524 22.0028 40.841 21.9928C40.8294 21.9825 40.8175 21.9728 40.8045 21.9637C40.7923 21.9549 40.78 21.9465 40.7667 21.939C40.7532 21.9308 40.7393 21.9236 40.7251 21.9171C40.7108 21.9105 40.6966 21.9045 40.6818 21.8992C40.6669 21.8939 40.652 21.8895 40.6365 21.8857C40.6207 21.8817 40.6046 21.8785 40.5881 21.876C40.5797 21.8748 40.5719 21.872 40.5635 21.8713C36.7137 21.4981 33.703 20.7394 30.593 18.1154C30.3911 17.9451 30.0845 17.9657 29.9094 18.1611C29.8981 18.1737 29.8897 18.1877 29.88 18.2012C26.7526 20.8164 24.1409 21.5125 20.4365 21.871C20.1887 21.8951 20 22.0971 20 22.3385V33.3388C20 33.3805 20.0058 33.4218 20.0171 33.4619C21.9824 40.4865 29.9084 43.8237 30.2448 43.9624C30.3055 43.9875 30.3701 44 30.4344 44C30.4981 44 30.5624 43.9878 30.6221 43.9634C30.9626 43.825 38.9795 40.488 40.9448 33.4622C40.9515 33.4374 40.9567 33.4124 40.9593 33.3867L40.9974 33.0232C40.999 33.0075 41 32.9916 41 32.9756V22.3388C41 22.3297 40.9981 22.3219 40.9974 22.3138ZM39.9991 33.2521C38.303 39.2324 31.6469 42.4688 30.4354 43.014C29.2345 42.4673 22.6751 39.238 20.9689 33.2749V22.7609C24.4804 22.3842 27.204 21.6042 30.2906 19.093C33.3495 21.552 36.4265 22.3726 40.0304 22.7593V32.9512L39.9991 33.2521Z" fill="#9DFA3F" stroke="#9DFA3F"/>
<path d="M34.612 28.3134H34.2036C33.979 26.4296 32.3606 24.9629 30.4011 24.9629C28.4415 24.9629 26.8231 26.4296 26.5988 28.3134H26.1048C25.87 28.3134 25.6794 28.5037 25.6794 28.7388V34.9776C25.6794 35.2127 25.87 35.403 26.1048 35.403H34.6123C34.8471 35.403 35.0377 35.2127 35.0377 34.9776V28.7388C35.0374 28.5037 34.8468 28.3134 34.612 28.3134ZM30.4008 25.8136C31.8902 25.8136 33.1243 26.9003 33.3435 28.3134H27.4581C27.6776 26.9003 28.9114 25.8136 30.4008 25.8136ZM34.1866 29.1642V34.5522H26.5299V29.1642H34.1866Z" fill="#9DFA3F" stroke="#9DFA3F"/>
</svg>
