<svg width="60" height="60" viewBox="0 0 60 60" fill="none" xmlns="http://www.w3.org/2000/svg">
<circle cx="30" cy="30" r="30" fill="#181818"/>
<path fill-rule="evenodd" clip-rule="evenodd" d="M30 21.75C33.43 21.75 36.594 22.025 40.206 22.63C40.864 25.0775 41.2 27.5525 41.2 30C41.2 32.4475 40.864 34.9225 40.206 37.37C36.594 37.975 33.43 38.25 30 38.25C26.57 38.25 23.406 37.975 19.794 37.37C19.136 34.9225 18.8 32.4475 18.8 30C18.8 27.5525 19.136 25.0775 19.794 22.63C23.406 22.025 26.57 21.75 30 21.75ZM30 19C26.178 19 22.692 19.33 18.87 19.99L17.568 20.21L17.218 21.4475C16.406 24.2938 16 27.1538 16 30C16 32.8462 16.406 35.7062 17.218 38.5525L17.568 39.7763L18.87 39.9963C22.692 40.67 26.178 41 30 41C33.822 41 37.308 40.67 41.13 40.01L42.432 39.79L42.782 38.5662C43.594 35.7062 44 32.8462 44 30C44 27.1538 43.594 24.2938 42.782 21.4475L42.432 20.2237L41.13 20.0038C37.308 19.33 33.822 19 30 19Z" fill="#FF7AE2"/>
</svg>
